<svg width="34" height="28" viewBox="0 0 34 28" fill="none" xmlns="http://www.w3.org/2000/svg">
<path d="M0 18.9385C0 14.9515 1.27957 11.2967 3.83871 7.97411C6.39785 4.65156 9.56631 1.99353 13.3441 0L14.9892 2.89968C13.1613 4.2287 11.5161 5.64833 10.0538 7.15858C8.5914 8.66882 7.34229 10.4509 6.30645 12.5049L9.68817 15.2233C11.0896 16.3107 12.034 17.3981 12.5215 18.4854C13.009 19.5728 13.2527 20.7206 13.2527 21.9288C13.2527 23.8015 12.6738 25.2816 11.5161 26.3689C10.3584 27.4563 8.89606 28 7.12903 28C5.97133 28 4.93548 27.7886 4.0215 27.3657C3.10753 26.9428 2.28495 26.4293 1.55376 25.8252C0.517921 23.6505 0 21.3549 0 18.9385ZM19.0107 18.9385C19.0107 14.9515 20.2903 11.2967 22.8495 7.97411C25.4086 4.65156 28.5771 1.99353 32.3548 0L34 2.89968C32.172 4.2287 30.5269 5.64833 29.0645 7.15858C27.6021 8.66882 26.353 10.4509 25.3172 12.5049L28.6989 15.2233C30.1004 16.3107 31.0448 17.3981 31.5323 18.4854C32.0197 19.5728 32.2634 20.7206 32.2634 21.9288C32.2634 23.8015 31.6846 25.2816 30.5269 26.3689C29.3692 27.4563 27.9068 28 26.1398 28C24.9821 28 23.9462 27.7886 23.0323 27.3657C22.1183 26.9428 21.2957 26.4293 20.5645 25.8252C19.5287 23.6505 19.0107 21.3549 19.0107 18.9385Z" fill="#E1E1E1"/>
</svg>
