<svg width="102" height="36" viewBox="0 0 102 36" fill="none" xmlns="http://www.w3.org/2000/svg">
<path fill-rule="evenodd" clip-rule="evenodd" d="M80.3998 14.6187C80.2202 14.8544 79.6647 14.6886 79.4486 14.7848C79.5206 14.4267 80.0772 14.6326 80.3998 14.6187Z" fill="white"/>
<path fill-rule="evenodd" clip-rule="evenodd" d="M83.1707 21.8022C82.4925 22.2296 81.4968 22.3462 80.5239 22.467C79.2243 22.6283 77.6493 22.5594 76.4707 22.467C78.2407 21.8272 81.0161 21.9504 83.1707 21.8022Z" fill="white"/>
<path fill-rule="evenodd" clip-rule="evenodd" d="M59.1016 12.0026C58.3933 14.4197 57.4532 16.9635 56.7029 19.4775C57.9019 19.4505 59.2811 19.2661 60.6731 19.145C61.8917 19.0391 63.5242 19.0882 64.3541 18.5221C65.0544 18.0439 65.0692 16.9946 65.5948 16.2797C65.9101 17.4345 66.8689 18.9944 66.1741 20.1001C65.663 20.9133 63.9767 21.4555 62.8653 21.8445C61.5457 22.3061 60.5587 22.6906 59.226 23.2145C57.9839 23.7031 56.8959 24.1634 55.3385 24.3357C53.4785 24.5419 50.9379 24.1675 50.7067 22.3425C50.6243 21.6915 50.8952 21.0257 51.1616 20.4738C51.9143 18.9152 53.1001 17.6937 54.1806 16.5707C54.956 15.7648 55.7435 14.9938 56.5378 14.2868C57.4039 13.5151 58.2744 12.7556 59.1016 12.0026ZM55.669 17.3175C55.0087 17.9317 54.3363 18.5207 53.6012 19.4353C53.0126 20.1679 52.1555 21.0465 52.2778 22.0933C52.3664 22.8505 53.4799 23.1121 54.2629 23.1314C55.7569 23.1681 57.2657 22.5165 58.688 22.0103C60.1444 21.4919 61.586 21.0154 62.8649 20.4738C60.2678 20.4638 57.5631 20.8842 54.6765 20.9721C54.9546 19.7288 55.4309 18.4629 55.669 17.3175Z" fill="black"/>
<path fill-rule="evenodd" clip-rule="evenodd" d="M18.1179 17.1099C18.5787 16.8448 18.8007 16.3077 19.0278 15.8641C19.2628 15.4042 19.5509 14.9017 19.6895 14.3692C19.9059 13.54 19.7873 12.7701 19.7308 12.0437C19.4075 7.88148 23.6231 7.00391 27.1335 6.39625C29.2433 6.03082 31.6968 6.07131 33.9159 6.3132C34.2112 6.34538 34.5879 6.47272 34.8257 6.43777C35.1376 6.39175 35.6469 5.91593 35.9423 5.73184C36.614 5.31381 37.3928 4.8944 38.2996 4.73522C39.4224 4.53832 40.8037 4.7065 42.063 4.94285C45.6471 5.61522 49.4525 6.51425 52.2782 7.7666C52.3326 8.01921 51.8612 8.45212 51.6992 8.76321C54.4104 7.28836 56.9607 5.75433 60.0941 4.81827C62.9659 3.96042 66.2954 3.82685 69.1924 4.73522C69.5477 4.84665 70.0067 5.07954 70.35 5.10895C70.8704 5.15325 71.5024 4.95081 72.0869 4.90132C81.3541 4.11683 89.9833 6.78417 97.893 8.30643C96.1808 11.072 93.7912 13.157 90.6557 14.4938C90.9786 14.8132 91.3463 14.9308 91.6069 15.2412C92.3189 16.0897 92.262 17.5407 91.7723 18.5217C91.2912 19.4858 90.2425 20.0381 89.7045 20.6396C91.3984 20.5402 93.0764 20.8503 93.3025 22.4252C93.5337 24.0357 92.6425 25.3295 91.855 26.1625C89.3647 28.7966 85.023 29.6603 80.813 30.523C77.8878 31.122 75.2279 31.4034 71.7561 31.4366C69.0597 31.4622 64.8634 31.2144 63.692 29.4849C63.4618 29.1451 63.3364 28.6239 63.3198 28.1972C60.0589 29.6001 56.3993 31.0798 51.947 31.1874C47.3672 31.2975 43.1868 30.187 41.608 27.076C40.8581 28.4426 40.2088 29.8174 38.9199 30.5642C37.4452 31.4193 34.8147 31.5369 33.006 31.1874C31.0006 30.7995 29.4594 29.952 29.2837 27.865C29.1103 25.8019 29.9398 23.7893 30.483 22.093C31.0754 20.2433 31.7337 18.5619 32.3853 16.9438C31.5038 17.4639 30.8938 18.4567 30.2352 19.3107C28.3132 21.8023 26.0217 24.2658 23.4115 26.1625C21.7273 27.3858 19.8401 28.6153 17.6627 29.5261C15.7355 30.3323 12.5711 31.4411 10.1773 30.4811C9.34602 30.1479 8.52959 29.2496 8.9366 28.1142C9.15751 27.4975 9.91811 27.138 9.97049 26.4532C10.0101 25.931 9.49524 25.2409 9.18473 24.7091C8.28765 23.1733 7.27306 21.3995 6.62067 19.809C5.71601 17.6044 4.60974 14.49 5.4217 11.8361C6.1661 9.40202 8.26491 7.94343 10.343 6.76998C11.9835 5.84361 13.5988 5.16121 15.5125 4.48607C16.5874 4.1068 18.4612 3.47215 19.2759 4.56912C20.4246 6.1163 19.4303 9.11999 19.0274 10.7564C18.4974 12.9099 18.1035 14.9253 18.1179 17.1099ZM42.3521 6.31354C41.0301 6.05297 39.5523 5.80866 38.2992 6.10591C37.7061 6.24676 37.1275 6.55335 36.6864 6.85338C36.3345 7.09284 35.7328 7.73926 35.2803 7.80847C34.7492 7.88979 33.9979 7.66001 33.3365 7.60084C29.853 7.28905 26.6424 7.51883 23.9074 8.5144C22.9538 8.86149 21.7521 9.34077 21.302 10.2585C20.773 11.3375 21.4298 12.8324 21.2606 14.2034C21.1869 14.8 20.8812 15.4402 20.5989 15.989C20 17.1535 19.4268 17.9041 18.6549 18.9374C18.3788 19.3069 17.7805 20.1156 17.2488 20.017C16.8807 19.9485 16.7115 19.2969 16.6698 18.5636C16.4861 15.3367 17.2791 12.6334 17.8278 9.92628C18.0559 8.79955 18.3747 7.42885 18.2823 6.35507C18.2151 5.56781 17.8622 5.24737 17.2074 5.2754C16.1225 5.32177 14.7788 6.08515 13.7335 6.52117C12.5966 6.99526 11.643 7.50222 10.7142 8.09915C8.86216 9.29024 7.10488 10.8173 6.78575 13.4144C6.44629 16.1735 7.55255 18.6193 8.52269 20.5569C9.00449 21.5192 9.46009 22.4906 10.2183 23.4636C10.8017 24.2132 11.9883 25.396 11.8312 26.495C11.7161 27.3006 10.1015 28.1169 10.3837 28.945C10.5271 29.3658 11.4783 29.4776 12.3278 29.4852C14.8108 29.507 16.707 28.5364 18.2003 27.7827C20.5517 26.595 22.3693 25.2589 24.1966 23.7128C26.0458 22.1487 27.739 20.5067 29.2423 18.6879C30.7563 16.8566 32.0235 14.8197 33.5847 12.9161C34.7013 15.952 33.5605 18.4076 32.6335 20.5984C32.1458 21.7511 31.7512 22.812 31.3511 24.0865C30.9923 25.2299 30.4775 26.9349 30.8135 28.1976C31.2498 29.8361 33.6908 30.1361 35.6108 29.9832C37.0479 29.869 38.1331 29.4697 38.8779 28.7374C40.4404 27.2017 41.2644 25.0354 42.2277 23.0065C42.0247 25.8254 43.1685 27.484 44.9985 28.4879C46.8192 29.487 49.1965 29.9413 51.8636 29.9413C57.2161 29.9413 61.2558 27.9086 64.5598 26.0794C64.3799 26.9868 64.3307 27.9851 64.6839 28.654C65.3956 30.0019 67.2935 30.1019 69.3571 30.2735C70.7891 30.3929 71.8943 30.4223 72.9137 30.3981C75.5419 30.3362 77.9612 30.0171 80.4405 29.5257C83.7772 28.8648 87.351 27.8668 89.8696 26.2037C90.7195 25.6427 91.6534 24.9094 91.8547 23.9197C92.4247 21.114 89.1038 21.9448 87.3055 22.3414C85.9305 22.6449 84.5567 23.064 83.3771 23.338C80.7717 23.9429 77.3502 24.7291 75.0232 23.6702C74.6679 23.5086 74.153 23.2456 74.1544 22.7151C74.1558 22.3584 74.5286 21.9532 74.7747 21.7601C75.6298 21.0894 77.0465 20.9157 78.5381 20.805C82.2394 20.5302 87.7077 21.1327 89.911 18.8114C90.4503 18.2432 90.9945 16.8479 90.3659 15.8215C89.8579 14.9917 88.5569 14.8118 87.3882 14.8664C84.1804 15.017 81.4747 16.3545 78.6622 16.2783C78.1462 16.2641 77.1637 16.2724 77.0079 15.9046C76.8146 15.4482 77.2954 14.7696 77.5459 14.4512C77.865 14.0453 78.2786 13.5906 78.6622 13.4546C79.2984 13.2293 80.2909 13.3608 81.1849 13.4546C83.8823 13.7363 86.607 13.9806 88.8357 13.5792C91.6734 13.068 93.5927 11.5506 95.1628 9.84184C95.3782 9.60791 95.6697 9.37572 95.7418 9.05285C89.0221 7.83615 81.3599 5.8668 73.989 5.97995C72.6897 5.99968 71.5207 6.18135 70.5564 6.68589C69.7555 7.10495 68.6179 8.06627 68.7781 9.17743C68.8732 9.83769 69.7331 10.3225 70.3496 10.5478C71.1361 10.8357 71.9529 10.9454 72.6246 11.2537C70.888 11.5707 68.7892 12.0728 67.0415 12.3749C67.3824 11.5056 67.8338 10.6602 68.2408 9.59269C68.5148 8.87326 69.1572 7.31604 68.9436 6.39521C68.7371 5.50587 67.0429 5.33146 65.8832 5.31554C64.7928 5.30066 63.3578 5.47818 62.368 5.68927C55.719 7.10807 50.6608 10.7613 46.3219 14.3681C47.1477 12.4303 48.3394 10.5955 49.4236 8.9698C49.5811 8.73345 49.8337 8.44485 49.7958 8.26387C47.3258 7.38352 44.8748 6.81081 42.3521 6.31354ZM79.4486 14.7848C79.6647 14.6886 80.2199 14.8543 80.3998 14.6187C80.0772 14.6325 79.5206 14.4266 79.4486 14.7848ZM76.4707 22.467C77.6493 22.5594 79.2243 22.6283 80.5239 22.467C81.4964 22.3463 82.4924 22.2296 83.1706 21.8023C81.016 21.9504 78.2407 21.8272 76.4707 22.467Z" fill="black"/>
</svg>
