<svg width="237" height="32" viewBox="0 0 237 32" fill="none" xmlns="http://www.w3.org/2000/svg">
<path d="M17.6789 3.71221C17.6789 1.15221 15.2449 0.512207 13.3232 0.512207V0.896207C14.4762 0.896207 15.373 1.28021 15.373 2.17621C15.373 2.68821 14.9886 3.45621 13.8357 3.45621C12.9389 3.45621 11.0173 2.94421 9.60811 2.43221C7.9427 1.79221 6.40541 1.28021 5.12432 1.28021C2.56216 1.28021 0.768649 3.20021 0.768649 5.37621C0.768649 7.29621 2.17784 7.93621 2.69027 8.19221L2.81838 7.93621C2.56216 7.68021 2.17784 7.42421 2.17784 6.65621C2.17784 6.14421 2.69027 5.24821 3.97135 5.24821C5.12432 5.24821 6.66162 5.76021 8.71135 6.40021C10.5049 6.91221 12.4265 7.29621 13.4514 7.42421V11.3922L11.5297 13.0562V13.1842L13.4514 14.8482V20.3522C12.4265 20.9922 11.2735 21.1202 10.2486 21.1202C8.32703 21.1202 6.66162 20.6082 5.25243 19.0722L10.5049 16.5122V7.68021L4.09946 10.4962C4.61189 8.83221 6.02108 7.68021 7.43027 6.91221L7.30216 6.52821C3.45892 7.55221 0 11.1362 0 15.4882C0 20.6082 4.22757 24.4482 8.96757 24.4482C14.0919 24.4482 17.4227 20.3522 17.4227 16.1282H17.1665C16.3978 17.7922 15.2449 19.3282 13.8357 20.0962V14.8482L15.8854 13.1842V13.0562L13.8357 11.3922V7.42421C15.7573 7.42421 17.6789 6.14421 17.6789 3.71221ZM6.53351 17.7922L4.99622 18.5602C4.09946 17.4082 3.58703 15.8722 3.58703 13.6962C3.58703 12.8002 3.58703 11.7762 3.84324 11.0082L6.53351 9.85621V17.7922ZM20.113 20.7362L18.4476 22.0162L18.7038 22.2722L19.4724 21.6322L22.2908 24.1922L26.1341 21.6322L26.0059 21.3762L24.9811 22.0162L23.7 20.7362V12.0322L24.7249 11.2642L26.9027 13.0562V20.8642C26.9027 25.7282 25.8778 26.4962 23.7 27.2642V27.6482C27.287 27.7762 30.6178 26.6242 30.6178 20.3522V11.9042L31.7708 11.0082L31.5146 10.7522L30.4897 11.5202L27.287 8.83221L23.7 11.5202V1.02421H23.4438L18.96 4.09621V4.35221C19.4724 4.60821 20.2411 4.86421 20.2411 6.27221L20.113 20.7362ZM43.5568 19.3282L40.3541 21.7602L37.1514 19.2002V17.6642L43.1724 13.5682V13.4402L40.0978 8.83221L33.4362 12.4162V20.8642L32.1551 21.8882L32.4114 22.1442L33.5643 21.2482L37.92 24.4482L43.6849 19.8402L43.5568 19.3282ZM37.1514 17.1522V10.8802L37.4076 10.7522L40.2259 15.2322L37.1514 17.1522ZM68.0254 2.56021C68.0254 2.17621 67.8973 1.79221 67.7692 1.40821H67.513C67.1286 2.43221 66.6162 2.94421 65.3351 2.94421C64.1822 2.94421 63.4135 2.30421 62.9011 1.79221L59.1859 6.01621L59.4422 6.27221L60.7232 5.12021C61.4919 5.76021 62.1324 6.27221 63.9259 6.40021V17.0242L56.3676 4.09621C55.727 3.07221 54.8303 1.66421 53.0368 1.66421C50.987 1.66421 49.1935 3.45621 49.4497 6.27221H49.8341C49.9622 5.50421 50.3465 4.60821 51.2432 4.60821C51.8838 4.60821 52.5243 5.24821 52.9086 5.88821V10.1122C50.6027 10.1122 49.0654 11.1362 49.0654 13.0562C49.0654 14.0802 49.5778 15.6162 51.1151 16.0002V15.7442C50.8589 15.4882 50.7308 15.2322 50.7308 14.8482C50.7308 14.2082 51.2432 13.6962 52.14 13.6962H52.7805V19.0722C50.0903 19.0722 47.9124 20.6082 47.9124 23.1682C47.9124 25.6002 49.9622 26.7522 52.2681 26.6242V26.3682C50.8589 26.2402 50.2184 25.6002 50.2184 24.7042C50.2184 23.5522 50.987 23.0402 52.0119 23.0402C53.0368 23.0402 53.9335 23.6802 54.5741 24.4482L58.2892 20.3522L58.033 20.0962L57.1362 21.1202C55.727 19.8402 54.9584 19.4562 53.293 19.2002V6.40021L63.5416 24.3202H64.3103V6.40021C66.2319 6.27221 68.0254 4.73621 68.0254 2.56021ZM77.3773 19.3282L74.1746 21.7602L70.9719 19.2002V17.6642L76.993 13.5682V13.4402L73.9184 8.83221L67.2568 12.4162V20.8642L65.9757 21.8882L66.2319 22.1442L67.3849 21.2482L71.7405 24.4482L77.5054 19.8402L77.3773 19.3282ZM70.9719 17.1522V10.8802L71.2281 10.7522L74.0465 15.2322L70.9719 17.1522ZM98.2589 10.2402L97.3622 10.8802L94.9281 8.83221L92.1097 11.3922L93.2627 12.5442V22.1442L90.1881 20.2242V12.2882L91.213 11.6482L88.2665 8.83221L85.4481 11.3922L86.6011 12.5442V21.7602L86.2168 22.0162L83.5265 20.0962V12.4162C83.5265 10.6242 82.6297 10.1122 81.6049 9.47221C80.7081 8.83221 80.1957 8.44821 80.1957 7.55221C80.1957 6.78421 80.9643 6.40021 81.3486 6.14421V5.88821C80.3238 5.88821 77.6335 6.91221 77.6335 9.34421C77.6335 10.6242 78.2741 11.1362 78.9146 11.7762C79.5551 12.4162 80.1957 12.9282 80.1957 14.0802V21.5042L78.7865 22.5282L79.0427 22.7842L80.3238 21.7602L83.2703 24.3202L86.473 22.1442L90.06 24.3202L96.8497 20.3522V11.7762L98.5151 10.4962L98.2589 10.2402ZM122.087 3.20021L120.806 4.35221L117.988 1.79221L113.76 4.86421V2.04821H113.376L113.504 22.7842C113.119 22.7842 111.966 22.5282 111.07 22.2722L110.814 4.99221C110.814 3.71221 109.917 1.92021 107.611 1.92021C105.305 1.92021 103.768 3.71221 103.768 5.50421H104.152C104.28 4.73621 104.664 4.09621 105.433 4.09621C106.202 4.09621 106.842 4.60821 106.842 6.27221V11.2642C104.536 11.3922 103.127 12.6722 103.127 14.3362C103.127 15.3602 103.639 16.8962 105.177 16.8962V16.6402C104.664 16.3842 104.536 16.0002 104.536 15.7442C104.536 14.9762 105.177 14.7202 106.202 14.7202H106.714V22.6562C104.792 23.2962 104.024 24.7042 104.024 26.2402C104.024 28.4162 105.689 29.9522 108.251 29.9522C110.045 29.9522 111.582 29.6962 113.119 29.3122C114.401 29.0562 116.066 28.6722 116.835 28.6722C117.859 28.6722 118.244 29.1842 118.244 29.8242C118.244 30.7202 117.859 31.1042 117.347 31.2322V31.4882C119.397 31.1042 120.678 29.8242 120.678 27.9042C120.678 25.9842 118.756 24.8322 116.706 24.8322C115.682 24.8322 113.504 25.2162 111.966 25.4722C110.173 25.8562 108.379 26.1122 107.867 26.1122C106.97 26.1122 105.945 25.7282 105.945 24.4482C105.945 23.4242 106.842 22.5282 109.02 22.5282C110.173 22.5282 111.582 22.6562 112.991 23.0402C114.529 23.4242 115.938 23.8082 117.219 23.8082C119.141 23.8082 120.806 23.1682 120.806 20.4802V4.73621L122.343 3.45621L122.087 3.20021ZM116.835 11.0082C116.45 11.3922 115.938 11.7762 115.297 11.7762C114.657 11.7762 114.016 11.3922 113.76 11.0082V5.37621L115.041 4.48021L116.835 6.14421V11.0082ZM116.835 14.8482C116.578 14.5922 115.938 14.2082 115.297 14.2082C114.657 14.2082 114.016 14.5922 113.76 14.8482V11.5202C114.016 11.7762 114.657 12.1602 115.297 12.1602C115.938 12.1602 116.578 11.7762 116.835 11.5202V14.8482ZM116.835 20.8642C116.835 21.8882 116.194 22.9122 114.785 22.9122H113.76V15.3602C114.016 15.1042 114.657 14.7202 115.297 14.7202C115.938 14.7202 116.45 15.1042 116.835 15.3602V20.8642ZM134.385 11.7762L130.286 8.83221L124.009 12.4162V20.7362L122.728 21.7602L122.856 22.0162L123.881 21.2482L127.98 24.3202L134.385 20.4802V11.7762ZM127.468 19.8402V10.6242L130.67 12.9282V22.0162L127.468 19.8402ZM146.556 9.08821H146.299C145.915 9.34421 145.531 9.60021 145.146 9.60021C144.634 9.60021 143.994 9.34421 143.737 8.96021H143.481L141.303 11.3922L139.125 8.96021L135.282 11.5202L135.41 11.7762L136.435 11.1362L137.716 12.5442V20.6082L136.051 21.8882L136.307 22.1442L137.076 21.5042L140.15 24.0642L144.122 21.3762L143.994 21.1202L142.841 21.7602L141.303 20.4802V11.5202C141.944 12.1602 142.712 12.8002 143.609 12.8002C145.403 12.9282 146.428 11.1362 146.556 9.08821ZM161.929 21.3762L157.573 24.3202L151.68 15.3602L155.908 8.83221H156.164C156.676 9.34421 157.445 9.85621 158.342 9.85621C159.238 9.85621 159.879 9.34421 160.263 8.83221H160.519C160.391 11.3922 158.598 12.9282 157.317 12.9282C156.036 12.9282 155.395 12.2882 154.626 11.9042L154.242 12.5442L160.648 22.0162L161.929 21.2482V21.3762ZM147.837 20.7362L146.171 22.0162L146.428 22.2722L147.196 21.6322L150.015 24.1922L153.858 21.6322L153.602 21.3762L152.577 22.0162L151.296 20.7362V1.02421H151.168L146.556 4.09621V4.35221C147.068 4.60821 147.837 4.73621 147.837 6.27221V20.7362ZM183.195 3.71221C183.195 1.15221 180.761 0.512207 178.839 0.512207V0.896207C179.992 0.896207 180.889 1.28021 180.889 2.17621C180.889 2.68821 180.504 3.45621 179.351 3.45621C178.455 3.45621 176.533 2.94421 175.124 2.43221C173.458 1.92021 171.921 1.40821 170.64 1.40821C168.078 1.40821 166.284 3.32821 166.284 5.50421C166.284 7.42421 167.694 8.06421 168.206 8.32021L168.334 8.06421C167.95 7.80821 167.565 7.55221 167.565 6.78421C167.565 6.27221 168.078 5.37621 169.359 5.37621C170.512 5.37621 172.049 5.88821 174.099 6.52821C175.892 7.04021 177.814 7.42421 178.839 7.55221V11.5202L176.917 13.1842V13.3122L178.839 14.9762V20.4802C177.814 21.1202 176.661 21.2482 175.636 21.2482C173.715 21.2482 172.049 20.7362 170.64 19.2002L175.892 16.6402V7.68021L169.487 10.4962C170.128 8.83221 171.537 7.68021 172.818 6.78421L172.69 6.52821C168.846 7.55221 165.388 11.0082 165.388 15.3602C165.388 20.4802 169.615 24.3202 174.355 24.3202C179.479 24.3202 182.81 20.2242 182.81 16.0002H182.554C181.785 17.6642 180.632 19.2002 179.223 19.9682V14.7202L181.273 13.0562V12.9282L179.351 11.2642V7.42421C181.273 7.42421 183.195 6.14421 183.195 3.71221ZM172.049 17.7922L170.512 18.5602C169.615 17.4082 169.103 15.8722 169.103 13.6962C169.103 12.8002 169.231 11.7762 169.487 11.0082L172.177 9.85621L172.049 17.7922ZM187.678 2.43221H187.55L184.988 4.60821V4.73621L187.166 7.16821H187.422L189.984 4.99221V4.86421L187.678 2.43221ZM191.522 21.3762L190.497 22.0162L189.216 20.7362V11.9042L190.497 11.0082L190.241 10.7522L189.344 11.5202L187.038 8.83221L183.323 11.3922L183.579 11.7762L184.476 11.1362L185.629 12.5442V20.8642L183.963 22.1442L184.091 22.4002L184.988 21.7602L187.806 24.3202L191.65 21.7602L191.522 21.3762ZM212.916 21.2482L212.019 21.8882L210.61 20.6082V11.9042L211.891 10.8802L211.635 10.6242L210.61 11.5202L207.663 8.83221L203.82 11.5202L200.874 8.83221L197.286 11.5202L194.981 8.83221L191.265 11.3922L191.394 11.7762L192.29 11.1362L193.571 12.5442V20.8642L192.546 21.8882L195.493 24.3202L198.311 21.7602L197.158 20.6082V11.9042L198.311 11.1362L200.233 12.9282V20.6082L199.208 21.6322L202.155 24.0642L204.973 21.5042L203.82 20.3522V11.9042L204.845 11.2642L206.895 13.0562V20.7362L205.998 21.6322L208.944 24.3202L212.916 21.6322V21.2482ZM224.061 19.3282L220.858 21.7602L217.656 19.2002V17.6642L223.677 13.5682V13.4402L220.602 8.83221L213.941 12.4162V21.1202L218.424 24.3202L224.189 19.7122L224.061 19.3282ZM217.656 17.1522V10.8802L217.912 10.7522L220.73 15.2322L217.656 17.1522ZM235.719 16.0002L233.285 14.0802C234.95 12.6722 235.591 10.7522 235.591 9.47221V8.70421H235.335C235.078 9.34421 234.566 9.98421 233.541 9.98421C232.516 9.98421 231.876 9.47221 231.235 8.70421L225.47 11.9042V16.5122L227.648 18.1762C225.47 20.0962 225.086 21.3762 225.086 22.4002C225.086 23.6802 225.726 24.5762 226.751 24.9602L226.879 24.7042C226.623 24.4482 226.367 24.3202 226.367 23.6802C226.367 23.2962 226.879 22.6562 227.904 22.6562C229.185 22.6562 229.954 23.5522 230.338 23.9362L235.847 20.6082V16.0002H235.719ZM234.31 12.1602C233.413 13.6962 231.491 15.2322 230.338 16.0002L228.929 14.8482V10.3682C229.442 11.6482 230.851 12.6722 232.26 12.6722C233.157 12.6722 233.669 12.5442 234.31 12.1602ZM232.132 22.4002C231.491 20.9922 229.954 19.9682 228.417 19.9682C228.032 19.9682 227.008 19.9682 225.983 20.6082C226.623 19.5842 228.289 17.7922 230.466 16.5122L232.004 17.7922L232.132 22.4002Z" fill="black"/>
</svg>
