<svg width="91" height="36" viewBox="0 0 91 36" fill="none" xmlns="http://www.w3.org/2000/svg">
<g clip-path="url(#clip0_2006_90)">
<path d="M7.67503 13.2553C7.67503 17.1177 8.435 18.9387 10.759 18.9387C13.1729 18.9387 13.9769 17.0321 13.9769 12.8656C13.9769 9.05235 13.1729 7.19126 10.8563 7.19126C8.56717 7.18215 7.67503 9.08878 7.67503 13.2553ZM2.62509 30.9448C2.62509 33.4269 5.173 35.0676 10.0431 35.0676C15.227 35.0676 17.8649 33.6108 17.8649 31.2544C17.8649 29.7029 16.6588 28.8597 14.3349 28.6394C10.491 28.2843 7.09863 28.7723 4.54704 28.0184C3.29511 28.6831 2.62509 29.7466 2.62509 30.9448ZM19.7868 12.9894C19.7868 16.6315 16.7928 19.1518 10.9756 19.8165C7.62363 20.1716 5.61173 20.5249 5.61173 22.0764C5.61173 23.6716 8.56166 23.4057 13.4335 23.5332C18.757 23.6661 21.5234 25.1284 21.5234 28.898C21.5234 33.1993 17.3674 36 9.99349 36C3.55761 36 0.117554 33.9969 0.117554 31.167C0.117554 30.1909 0.563623 29.3459 1.41354 28.6394C2.04975 28.1458 2.77952 27.7841 3.55945 27.5759C2.26897 26.822 1.643 25.6766 1.643 24.207C1.643 21.2806 3.96697 19.6398 8.61857 19.374C4.1487 18.5764 1.82657 16.4476 1.82657 13.2553C1.82657 9.66422 5.22257 6.65041 10.5864 6.38272C10.9829 2.34913 13.0389 0 15.3188 0C16.7873 0 17.7768 1.01978 17.7768 2.30543C17.7768 3.81324 16.7488 4.87673 15.3628 4.87673C14.5129 4.87673 13.9328 4.34498 13.2628 4.34498C12.1449 4.34498 11.6107 4.96596 11.4749 6.42825C16.6588 6.69412 19.7868 9.39835 19.7868 12.984M27.6582 16.7535C27.6582 23.138 29.2222 26.2848 32.5741 26.2848C35.9261 26.2848 37.5305 23.138 37.5305 16.7535C37.5305 10.369 35.8784 7.17669 32.5741 7.17669C29.2295 7.18215 27.6582 10.3799 27.6582 16.7535ZM43.6121 16.7535C43.6121 22.7829 39.0981 27.1716 32.5723 27.1716C26.0465 27.1716 21.5858 22.8321 21.5858 16.7535C21.5858 10.7241 26.0538 6.33537 32.5796 6.33537C39.1055 6.33537 43.6194 10.7277 43.6194 16.7535M51.6505 16.7535C51.6505 23.138 53.2145 26.2848 56.5664 26.2848C59.9184 26.2848 61.5227 23.138 61.5227 16.7535C61.5227 10.369 59.8706 7.17669 56.5664 7.17669C53.2145 7.18215 51.6505 10.3799 51.6505 16.7535ZM67.6043 16.7535C67.6043 22.7829 63.0904 27.1716 56.5664 27.1716C50.0424 27.1716 45.5726 22.8321 45.5726 16.7535C45.5726 10.7241 50.0406 6.33537 56.5664 6.33537C63.0922 6.33537 67.6062 10.7277 67.6062 16.7535M79.8391 26.0681C82.8772 26.0681 85.2011 23.0088 85.2011 17.3781C85.2011 12.1463 82.6991 9.04325 79.9272 9.04325C78.5872 9.04325 77.4234 9.62052 76.2173 10.7277V20.259C76.2173 24.0722 77.2012 26.0663 79.8373 26.0663M76.2173 31.1652C76.2173 32.9862 76.5312 33.9586 77.6859 34.3119C78.6239 34.6233 79.2939 34.494 79.2939 35.0658C79.2939 35.3754 79.07 35.5975 78.668 35.5975H68.3533C68.2789 35.605 68.2038 35.5968 68.1328 35.5733C68.0619 35.5499 67.9968 35.5118 67.9418 35.4615C67.8868 35.4113 67.8432 35.35 67.8138 35.2818C67.7844 35.2136 67.77 35.14 67.7714 35.0658C67.7714 34.5341 68.3973 34.667 69.1573 34.3574C70.3634 33.8694 70.6773 33.0718 70.6773 31.1652V13.1679C70.6773 11.2613 70.2752 10.5511 68.8893 9.97562C68.1752 9.66422 67.5933 9.70975 67.5933 9.22171C67.5933 8.4678 70.3652 8.64626 76.221 6.47377V9.48758C78.857 7.40432 81.047 6.33902 83.3801 6.33902C87.6701 6.33902 90.888 9.88639 90.888 15.2949C90.888 22.1656 86.1961 26.9986 79.4022 26.9986C78.329 26.9917 77.2616 26.8423 76.2283 26.5543V31.1652H76.2173Z" fill="black"/>
</g>
<defs>
<clipPath id="clip0_2006_90">
<rect width="91" height="36" fill="white"/>
</clipPath>
</defs>
</svg>
