<svg width="145" height="30" viewBox="0 0 145 30" fill="none" xmlns="http://www.w3.org/2000/svg">
<path d="M122.335 5.00618V25.0659H132.214C134.975 25.0659 136.573 24.6298 137.735 23.6123C139.188 22.3041 139.915 19.9783 139.915 15.036C139.915 10.0938 139.188 7.76802 137.735 6.45978C136.573 5.44226 134.975 5.00618 132.214 5.00618H122.335ZM135.847 15.036C135.847 19.3969 135.556 20.4144 134.684 20.9958C134.103 21.4319 133.377 21.5773 131.924 21.5773H126.403V8.34947H131.924C133.377 8.34947 134.103 8.34947 134.684 8.93091C135.556 9.65771 135.847 10.6752 135.847 15.036ZM145 29.5H116.014V0.5H145V29.5ZM92.3327 8.34947V5.00618H109.477V11.402H105.844V8.34947H98.8697V13.1464H104.391V16.3443H98.8697V21.7226H105.99V18.234H109.621V25.0659H92.3339V21.7226H95.0933V8.34947H92.3327ZM76.7867 19.8329C76.7867 22.0134 76.9308 23.6123 77.2214 24.9206H81.1454C80.9989 23.903 80.8548 22.0134 80.8548 19.5422C80.7083 16.635 79.8366 16.1989 77.8025 15.7629C80.1272 15.3268 81.1454 14.3092 81.1454 10.6752C81.1454 7.76802 80.7083 6.60514 79.8366 5.87834C79.2554 5.2969 78.2396 5.00618 76.6402 5.00618H64.4358V25.0659H68.5039V17.2165H74.1714C75.3337 17.2165 75.7685 17.3618 76.2055 17.6525C76.6425 17.9433 76.7867 18.3793 76.7867 19.8329ZM68.5039 14.0185V8.49483H75.0432C75.9149 8.49483 76.2055 8.64019 76.3496 8.78555C76.6402 9.07627 76.9308 9.51235 76.9308 11.2567C76.9308 13.001 76.6402 13.5824 76.3496 13.8732C76.2055 14.0185 75.9149 14.1639 75.0432 14.1639L68.5039 14.0185ZM86.957 29.5H57.8989V0.5H86.8838V29.5H86.957ZM50.3438 21.7226V25.0659H36.54V21.7226H41.4799V8.34947H36.54V5.00618H50.3426V8.34947H45.4027V21.7226H50.3438ZM27.024 5.00618H23.2465L20.486 20.8505L17.2896 6.16906C17.1443 5.15154 16.7084 5.00618 15.8367 5.00618H13.8026C12.9309 5.00618 12.495 5.2969 12.3497 6.16906L9.15331 20.8505L6.39279 5.00618H2.32465L6.2475 24.0484C6.39279 24.9206 6.68337 25.0659 7.7004 25.0659H10.4609C11.3327 25.0659 11.6232 24.9206 11.9138 24.0484L14.9649 10.2392L18.016 24.0484C18.1613 24.9206 18.4519 25.0659 19.4689 25.0659H22.0842C22.9559 25.0659 23.3918 24.9206 23.5371 24.0484L27.024 5.00618ZM29.0581 29.5H0V0.5H28.9861V29.5H29.0581Z" fill="black"/>
</svg>
